#N canvas 6 28 1908 1012 10;
#X declare -path ./Extras;
#N canvas 583 28 574 1012 peca-clock 0;
#X obj 8 26 nbx 5 16 -1e+37 1e+37 0 0 empty empty empty 0 -9 0 10 #fcfcfc #000000 #000000 0 256;
#X obj 8 45 sel 1 0, f 52;
#X obj 8 4 r on-off;
#X obj 8 449 s poem-phrase;
#X msg 8 97 list Silêncio.;
#X obj 57 308 int;
#X msg 23 416 list Respire!;
#X obj 57 328 sel 90;
#X obj 305 207 line 1 1 msec;
#X obj 305 250 outlet;
#X obj 577 11 r on-off;
#X obj 577 95 s stop-bar;
#X obj 577 34 sel 0;
#X msg 577 57 stop;
#X obj 115 416 s respire;
#X obj 647 11 r on-off;
#X obj 647 33 sel 1 0, f 37;
#X obj 647 161 line;
#X obj 647 182 s piece-duration-bar;
#X msg 756 94 stop \, 0;
#X obj 351 250 outlet;
#X obj 305 149 f;
#X msg 305 176 0 \, \$1 \$1;
#X obj 320 121 r total-dur;
#X obj 662 54 r total-dur;
#X obj 647 75 f;
#X msg 647 95 0 \, 100 \$1;
#X obj 107 97 r section;
#X obj 107 119 expr if($f1 == 0 \, 0 \, 1);
#X obj 8 67 t b b b, f 50;
#X obj 107 184 array get duration-array;
#X msg 107 163 0;
#X obj 107 206 unpack f;
#X obj 107 228 nbx 5 16 -1e+37 1e+37 0 0 empty empty empty 0 -9 0 10 #fcfcfc #000000 #000000 0 256;
#X obj 107 271 line, f 15;
#X msg 107 249 0 \, 100 \$1;
#X obj 107 305 sel 100;
#X obj 107 327 outlet;
#X obj 160 305 s duration-bar;
#X obj 40 249 r stop-bar;
#X obj 107 141 sel 0, f 11;
#X obj 396 121 r on-off;
#X obj 396 144 sel 0;
#X msg 396 167 stop;
#X connect 0 0 1 0;
#X connect 1 0 29 0;
#X connect 2 0 0 0;
#X connect 4 0 3 0;
#X connect 5 0 7 0;
#X connect 6 0 3 0;
#X connect 7 0 6 0;
#X connect 7 0 14 0;
#X connect 8 0 9 0;
#X connect 8 0 20 0;
#X connect 10 0 12 0;
#X connect 12 0 13 0;
#X connect 13 0 11 0;
#X connect 15 0 16 0;
#X connect 16 0 25 0;
#X connect 16 1 19 0;
#X connect 17 0 18 0;
#X connect 19 0 17 0;
#X connect 21 0 22 0;
#X connect 22 0 8 0;
#X connect 23 0 21 1;
#X connect 24 0 25 1;
#X connect 25 0 26 0;
#X connect 26 0 17 0;
#X connect 27 0 28 0;
#X connect 28 0 40 0;
#X connect 29 0 4 0;
#X connect 29 2 21 0;
#X connect 30 0 32 0;
#X connect 31 0 30 0;
#X connect 32 0 33 0;
#X connect 33 0 35 0;
#X connect 34 0 36 0;
#X connect 34 0 38 0;
#X connect 34 0 5 0;
#X connect 35 0 34 0;
#X connect 36 0 37 0;
#X connect 39 0 34 0;
#X connect 40 0 31 0;
#X connect 41 0 42 0;
#X connect 42 0 43 0;
#X connect 43 0 8 0;
#X restore 298 9 pd peca-clock;
#X f 28;
#N canvas 6 28 574 1012 poema 0;
#X obj 176 93 text define poema;
#X obj 8 161 text get poema;
#X obj 89 184 nbx 5 16 -1e+37 1e+37 0 0 empty empty empty 0 -9 0 10 #fcfcfc #000000 #000000 0 256;
#X obj 89 205 sel 0;
#X msg 89 227 1;
#X msg 116 227 0;
#X obj 8 248 spigot;
#X msg 176 34 write poema.txt;
#X obj 278 34 loadbang;
#X obj 8 365 list split;
#X obj 65 321 list length;
#X obj 65 343 expr random(-1 \, $f1);
#X obj 78 365 loadbang;
#X obj 36 438 list split, f 12;
#X msg 78 416 1;
#X obj 36 460 outlet;
#X msg 278 56 read poema.txt;
#X obj 239 367 spigot, f 15;
#X obj 326 266 r on-off;
#X obj 239 452 s poem-phrase;
#X obj 338 292 loadbang;
#X msg 338 314 1;
#X obj 175 8 declare -path ./Extras;
#X obj 8 20 inlet;
#X obj 399 9 loadbang;
#X obj 400 55 text define poema-phrase;
#X msg 399 31 read poema-phrases.txt;
#X obj 8 270 t a a b, f 39;
#X obj 239 327 f;
#X obj 254 181 f;
#X obj 8 57 t f f;
#X obj 239 403 text get poema-phrase;
#X connect 1 0 6 0;
#X connect 1 1 2 0;
#X connect 2 0 3 0;
#X connect 3 0 4 0;
#X connect 3 1 5 0;
#X connect 4 0 6 1;
#X connect 5 0 6 1;
#X connect 6 0 27 0;
#X connect 7 0 0 0;
#X connect 8 0 16 0;
#X connect 9 1 13 0;
#X connect 10 0 11 0;
#X connect 11 0 9 1;
#X connect 12 0 14 0;
#X connect 13 0 15 0;
#X connect 14 0 13 1;
#X connect 16 0 0 0;
#X connect 17 0 31 0;
#X connect 18 0 17 1;
#X connect 20 0 21 0;
#X connect 21 0 17 1;
#X connect 23 0 30 0;
#X connect 24 0 26 0;
#X connect 26 0 25 0;
#X connect 27 0 9 0;
#X connect 27 1 10 0;
#X connect 27 2 28 0;
#X connect 28 0 17 0;
#X connect 29 0 28 1;
#X connect 30 0 1 0;
#X connect 30 1 29 0;
#X connect 31 0 19 0;
#X restore 142 301 pd poema;
#N canvas 6 28 951 1012 notes 0;
#X obj 7 4 inlet;
#X obj 35 573 outlet;
#X obj 261 207 sel 1 2 3 4, f 42;
#X text 327 9 1 \, baixo 2 \, tenor 3 \, contralto 4 \, soprano;
#X msg 323 250 50 62;
#X msg 385 250 57 69;
#X msg 447 251 62 74;
#X obj 261 293 unpack f f, f 19;
#X obj 35 543 else/midi2note;
#X obj 519 207 loadbang;
#X obj 114 518 s midi-pitch;
#X obj 45 67 text define chords;
#X msg 45 4 write Extras/chords.txt;
#X msg 62 47 read chords.txt;
#X obj 62 25 loadbang;
#X msg 261 250 44 57;
#X obj 7 165 text get chords;
#X obj 58 89 r section;
#X obj 7 142 int 0, f 9;
#X obj 7 102 bng 18 250 50 0 empty empty empty 0 -9 0 10 #fcfcfc #000000 #000000;
#X obj 58 209 list length;
#X obj 7 187 t a a, f 9;
#X obj 58 253 nbx 5 16 -1e+37 1e+37 0 0 empty empty empty 0 -9 0 10 #fcfcfc #000000 #000000 0 256;
#X obj 7 276 list split;
#X obj 35 307 unpack f;
#X obj 58 231 expr random(0 \, $f1);
#X obj 114 497 nbx 5 16 -1e+37 1e+37 0 0 empty empty empty 0 -9 0 10 #fcfcfc #000000 #000000 0 256;
#X obj 35 368 t f f, f 20;
#X obj 152 390 expr if($f1 > $f2 && $f1 < $f3 \, 1 \, 0);
#X obj 206 463 sel 0;
#X obj 206 540 s sort-again;
#X obj 126 100 r sort-again;
#X obj 206 510 del 0 1 msec;
#X obj 59 496 loadbang;
#X msg 59 518 sharp;
#X obj 58 111 - 1;
#X msg 209 101 0;
#X obj 209 69 r on-off;
#X obj 35 449 spigot;
#X obj 152 413 t f f;
#X obj 261 136 r naipe;
#X obj 92 306 r on-off;
#X obj 35 329 spigot, f 10;
#X connect 0 0 19 0;
#X connect 2 0 15 0;
#X connect 2 1 4 0;
#X connect 2 2 5 0;
#X connect 2 3 6 0;
#X connect 4 0 7 0;
#X connect 5 0 7 0;
#X connect 6 0 7 0;
#X connect 7 0 28 1;
#X connect 7 1 28 2;
#X connect 8 0 1 0;
#X connect 9 0 6 0;
#X connect 12 0 11 0;
#X connect 13 0 11 0;
#X connect 14 0 13 0;
#X connect 15 0 7 0;
#X connect 16 0 21 0;
#X connect 17 0 35 0;
#X connect 18 0 16 0;
#X connect 19 0 18 0;
#X connect 20 0 25 0;
#X connect 21 0 23 0;
#X connect 21 1 20 0;
#X connect 22 0 23 1;
#X connect 23 1 24 0;
#X connect 24 0 42 0;
#X connect 25 0 22 0;
#X connect 26 0 10 0;
#X connect 27 0 38 0;
#X connect 27 1 28 0;
#X connect 28 0 39 0;
#X connect 29 0 32 0;
#X connect 31 0 18 0;
#X connect 32 0 30 0;
#X connect 33 0 34 0;
#X connect 34 0 8 0;
#X connect 35 0 18 1;
#X connect 36 0 18 1;
#X connect 37 0 36 0;
#X connect 38 0 8 0;
#X connect 38 0 26 0;
#X connect 39 0 38 1;
#X connect 39 1 29 0;
#X connect 40 0 2 0;
#X connect 41 0 42 1;
#X connect 42 0 27 0;
#X restore 169 215 pd notes;
#X obj 142 331 list, f 18;
#X obj 142 392 s mylist;
#X obj 8 105 r midi-pitch;
#X obj 8 127 nbx 5 16 -1e+37 1e+37 0 0 empty empty empty 0 -9 0 10 #ffffff #ff0400 #000000 0 256;
#X obj 8 146 mtof;
#X obj 6 6 tgl 45 0 empty empty empty 0 -9 0 10 #fcfcfc #ff0400 #000000 0 1;
#X obj 6 64 s on-off;
#X obj 298 31 bng 18 250 50 0 empty empty empty 0 -9 0 10 #fcfcfc #000000 #000000;
#X obj 298 288 array get duration-array;
#X obj 298 99 + 1, f 6;
#X obj 298 78 int, f 6;
#X obj 298 363 del 1 1 msec;
#X obj 298 450 s next;
#X obj 328 54 r next;
#X obj 325 226 s phr-count;
#X obj 142 75 r phr-count;
#X obj 298 181 spigot, f 8;
#X obj 298 131 t f f, f 8;
#N canvas 326 28 317 1012 split-dur 0;
#X obj 4 3 inlet;
#X obj 53 223 else/router 2, f 14;
#X obj 53 74 array get duration-array;
#X obj 53 259 / 2;
#X obj 134 270 b;
#X obj 4 357 f;
#X obj 4 379 outlet;
#X obj 53 96 nbx 5 16 -1e+37 1e+37 0 0 empty empty empty 0 -9 0 10 #fcfcfc #000000 #000000 0 256;
#X obj 53 123 t f f b, f 28;
#N canvas 1213 28 951 486 duration-bar 0;
#X msg 12 54 0 \, 100 \$1;
#X obj 12 79 line;
#X obj 159 228 s poem-phrase;
#X obj 159 161 int;
#X msg 159 205 list Respire!;
#X obj 159 184 sel 90;
#X obj 12 140 t f f, f 25;
#X obj 12 255 s duration-bar;
#X obj 12 7 inlet;
#X obj 78 54 r stop-bar;
#X obj 147 54 s total-duration;
#X obj 98 228 s respire;
#X obj 203 162 sel 100;
#X msg 203 184 list;
#X obj 12 120 spigot;
#X obj 45 79 r end-piece;
#X obj 45 99 tgl 18 0 empty empty empty 0 -9 0 10 #fcfcfc #000000 #000000 0 1;
#X connect 0 0 1 0;
#X connect 1 0 14 0;
#X connect 3 0 5 0;
#X connect 3 0 12 0;
#X connect 4 0 2 0;
#X connect 5 0 4 0;
#X connect 5 0 11 0;
#X connect 6 0 7 0;
#X connect 6 1 3 0;
#X connect 8 0 0 0;
#X connect 8 0 10 0;
#X connect 9 0 1 0;
#X connect 12 0 13 0;
#X connect 13 0 2 0;
#X connect 14 0 6 0;
#X connect 15 0 16 0;
#X connect 16 0 14 1;
#X restore 160 270 pd duration-bar;
#X obj 218 169 s stop-bar;
#N canvas 1203 290 354 224 duration-bar 0;
#X msg 13 116 0 \, 100 \$1;
#X obj 13 143 line;
#X obj 70 385 s poem-phrase;
#X obj 70 246 int;
#X msg 70 340 list Respire!;
#X obj 13 224 t f f, f 10;
#X obj 13 412 s duration-bar;
#X obj 13 7 inlet;
#X obj 79 116 r stop-bar;
#X obj 13 29 t b f;
#X obj 13 51 f;
#X obj 139 209 sel 100;
#X obj 139 268 outlet;
#X obj 146 116 s total-duration;
#X obj 155 385 s respire;
#X obj 70 268 sel 90 100;
#X msg 98 294 list;
#X obj 139 240 spigot;
#X obj 46 143 r end-piece;
#X obj 13 187 spigot;
#X obj 46 165 tgl 18 0 empty empty empty 0 -9 0 10 #fcfcfc #000000 #000000 0 1;
#X connect 0 0 1 0;
#X connect 1 0 19 0;
#X connect 3 0 15 0;
#X connect 4 0 2 0;
#X connect 5 0 6 0;
#X connect 5 1 3 0;
#X connect 7 0 9 0;
#X connect 8 0 1 0;
#X connect 9 0 10 0;
#X connect 9 1 10 1;
#X connect 10 0 0 0;
#X connect 10 0 13 0;
#X connect 11 0 17 0;
#X connect 15 0 4 0;
#X connect 15 0 14 0;
#X connect 15 1 16 0;
#X connect 16 0 2 0;
#X connect 17 0 12 0;
#X connect 17 0 10 0;
#X connect 18 0 20 0;
#X connect 19 0 5 0;
#X connect 19 0 11 0;
#X connect 20 0 19 1;
#X restore 53 305 pd duration-bar;
#X msg 218 145 stop;
#X obj 4 25 t f f f, f 8;
#X obj 135 200 expr if($f1 > 12000 \, 0 \, 1);
#X connect 0 0 13 0;
#X connect 1 0 3 0;
#X connect 1 0 4 0;
#X connect 1 1 4 0;
#X connect 1 1 9 0;
#X connect 2 0 7 0;
#X connect 3 0 11 0;
#X connect 4 0 5 0;
#X connect 5 0 6 0;
#X connect 7 0 8 0;
#X connect 8 0 1 0;
#X connect 8 1 14 0;
#X connect 8 2 12 0;
#X connect 11 0 5 0;
#X connect 12 0 10 0;
#X connect 13 1 2 0;
#X connect 13 2 5 1;
#X connect 14 0 1 1;
#X restore 142 152 pd split-dur;
#X obj 298 310 t b f, f 24;
#X obj 56 26 hsl 153 9 0 100 0 0 iu duration-bar empty -2 -9 0 10 #fcfcfc #000000 #000000 0 1;
#X text 51 44 Duration bar;
#N canvas 6 28 571 1012 config 0;
#X obj 6 26 r duration-list;
#X obj 5 192 array set duration-array;
#X obj 6 4 array define -yrange 0 25000 duration-array 22;
#X obj 106 26 loadbang;
#X obj 112 242 loadbang;
#X obj 3 242 r sectiondur-list;
#X obj 3 361 array set section-dur;
#X obj 294 4 array define -yrange 0 50000 section-dur 14;
#X obj 183 180 array sum duration-array;
#X obj 183 147 loadbang;
#X obj 183 202 nbx 9 16 -1e+37 1e+37 0 0 empty empty empty 0 -9 0 10 #fcfcfc #000000 #000000 0 256;
#X obj 162 148 bng 18 250 50 0 empty empty empty 0 -9 0 10 #fcfcfc #000000 #000000;
#X obj 183 234 s total-dur;
#X obj 6 48 t b a;
#X obj 257 234 print Duracao total;
#X obj 69 153 print dur-list;
#X obj 21 287 print sec-list;
#X msg 106 48 30000 8000 8000 8000 15026 12230 13022 10121 14749 10353 17939 8033 9820 17731 19100 12140 9261 14877 19058 9317 16737 16486;
#X msg 112 268 30000 35000 15000 35000 15000 35000 9651 26346 5926 23461 6067 25193 8356 30000;
#X connect 0 0 13 0;
#X connect 3 0 17 0;
#X connect 4 0 18 0;
#X connect 5 0 6 0;
#X connect 5 0 16 0;
#X connect 8 0 10 0;
#X connect 9 0 8 0;
#X connect 10 0 12 0;
#X connect 10 0 14 0;
#X connect 11 0 8 0;
#X connect 13 0 11 0;
#X connect 13 1 1 0;
#X connect 13 1 15 0;
#X connect 17 0 1 0;
#X connect 18 0 6 0;
#X restore 53 6 pd config;
#X obj 142 175 nbx 5 16 -1e+37 1e+37 0 0 empty empty empty 0 -9 0 10 #fcfcfc #000000 #000000 0 256;
#X obj 343 154 expr if($f1 > 22 \, 0 \, 1);
#X obj 142 196 t f f;
#X listbox 142 353 9 0 0 0 - - - 24;
#X obj 463 51 nbx 6 18 -1e+37 1e+37 0 0 empty empty empty 0 -9 0 14 #ffffff #ff0400 #000000 0 256;
#X obj 368 247 loadbang;
#X msg 368 267 1;
#N canvas 6 28 591 1012 sound 0;
#X obj 62 157 osc~ 440;
#X obj 173 327 line~;
#X obj 62 390 *~, f 15;
#X msg 173 177 0 \, 1 300;
#X obj 62 5 inlet;
#X obj 173 157 f;
#X obj 62 27 t f b;
#X obj 62 411 dac~ 1;
#X obj 206 9 r total-duration;
#X obj 206 31 t b f, f 18;
#X obj 173 136 spigot;
#X obj 127 13 loadbang;
#X msg 127 35 0;
#X msg 206 51 1;
#X obj 237 136 r respire;
#X obj 237 246 spigot;
#X obj 270 217 r section;
#X msg 331 261 0 300;
#X obj 331 184 sel 0;
#X obj 146 426 else/vu~;
#X obj 146 448 vu 18 160 empty empty -1 -9 0 10 #404040 #000000 1 0;
#X obj 289 355 s end-piece;
#X obj 331 159 r end-piece;
#X msg 237 158 0 300;
#X obj 331 207 del 1 1 sec;
#X connect 0 0 2 0;
#X connect 1 0 2 1;
#X connect 2 0 7 0;
#X connect 2 0 19 0;
#X connect 3 0 1 0;
#X connect 4 0 6 0;
#X connect 5 0 3 0;
#X connect 6 0 0 0;
#X connect 6 1 10 0;
#X connect 8 0 9 0;
#X connect 9 0 13 0;
#X connect 9 1 5 1;
#X connect 10 0 5 0;
#X connect 11 0 12 0;
#X connect 12 0 10 1;
#X connect 13 0 10 1;
#X connect 14 0 23 0;
#X connect 15 0 1 0;
#X connect 16 0 15 1;
#X connect 17 0 1 0;
#X connect 18 0 24 0;
#X connect 19 0 20 0;
#X connect 22 0 18 0;
#X connect 23 0 15 0;
#X connect 24 0 17 0;
#X restore 8 199 pd sound;
#X obj 216 5 r section;
#X obj 216 25 nbx 3 20 -1e+37 1e+37 0 0 empty empty empty 0 -9 0 14 #ffffff #ff0400 #ff0400 0 256;
#X obj 142 271 f;
#X obj 169 237 t b s;
#X obj 8 168 spigot, f 11;
#X obj 71 126 r on-off;
#X obj 56 37 hsl 153 9 0 100 0 0 d piece-duration-bar empty -2 -9 0 10 #fcfcfc #000000 #000000 0 1;
#N canvas 0 50 450 250 (subpatch) 0;
#X coords 0 1 100 -1 151 345 1;
#X restore 136 67 graph;
#N canvas 0 50 450 250 (subpatch) 0;
#X coords 0 1 100 -1 122 122 1;
#X restore 5 102 graph;
#X text 2 85 Sound - Sin;
#N canvas 1163 554 751 486 SECTIONS 0;
#X obj 5 6 inlet;
#X obj 76 8 r on-off;
#X obj 76 30 sel 1;
#X msg 76 52 0;
#X obj 76 83 int;
#X obj 76 183 t f f, f 11;
#X obj 139 205 + 1;
#X obj 5 384 sel 1;
#X obj 164 183 loadbang;
#X msg 164 205 1;
#X obj 5 363 expr if($f1 > $f2 \, 1 \, 0);
#X obj 76 241 array get section-dur;
#X obj 107 52 r section-count;
#X obj 5 406 s section-count;
#X obj 15 220 nbx 5 16 -1e+37 1e+37 0 0 empty empty empty 0 -9 0 10 #fcfcfc #000000 #000000 0 256;
#X obj 76 308 f;
#X obj 76 330 nbx 9 16 -1e+37 1e+37 0 0 empty empty empty 0 -9 0 10 #fcfcfc #000000 #000000 0 256;
#X obj 15 241 s section;
#X msg 221 242 0;
#X obj 221 77 r on-off;
#X obj 76 286 + 1;
#X obj 221 204 sel 0;
#X obj 76 134 spigot;
#X obj 221 269 s section;
#X connect 0 0 10 0;
#X connect 1 0 2 0;
#X connect 2 0 3 0;
#X connect 3 0 4 0;
#X connect 4 0 14 0;
#X connect 4 0 22 0;
#X connect 5 0 11 0;
#X connect 5 1 6 0;
#X connect 6 0 4 1;
#X connect 7 0 13 0;
#X connect 8 0 9 0;
#X connect 9 0 11 1;
#X connect 10 0 7 0;
#X connect 11 0 20 0;
#X connect 12 0 4 0;
#X connect 14 0 17 0;
#X connect 15 0 16 0;
#X connect 15 0 20 1;
#X connect 16 0 10 1;
#X connect 18 0 20 1;
#X connect 18 0 20 0;
#X connect 18 0 23 0;
#X connect 19 0 21 0;
#X connect 19 0 22 1;
#X connect 20 0 15 0;
#X connect 21 0 18 0;
#X connect 22 0 5 0;
#X restore 463 71 pd SECTIONS;
#N canvas 583 28 574 1012 PIECE-END 0;
#X obj 12 6 inlet;
#X obj 12 201 s end-piece;
#X obj 85 155 tgl 18 0 empty empty empty 0 -9 0 10 #fcfcfc #000000 #000000 0 1;
#X obj 85 268 s poem-phrase;
#X msg 85 245 list Fim!;
#X obj 153 10 r total-dur;
#X obj 165 75 print;
#X obj 85 178 sel 1;
#X obj 12 110 !=;
#X obj 12 75 expr if($f1 >= $f2 \, 0 \, 1);
#X obj 85 200 del 500 1 msec;
#X connect 0 0 9 0;
#X connect 2 0 7 0;
#X connect 4 0 3 0;
#X connect 5 0 6 0;
#X connect 5 0 9 1;
#X connect 7 0 10 0;
#X connect 8 0 1 0;
#X connect 8 0 2 0;
#X connect 9 0 8 0;
#X connect 10 0 4 0;
#X restore 380 51 pd PIECE-END;
#X obj 214 75 r end-piece;
#X obj 142 109 spigot;
#X obj 353 131 nbx 5 16 -1e+37 1e+37 0 0 empty empty empty 0 -9 0 10 #fcfcfc #000000 #000000 0 256;
#X obj 439 330 nbx 5 16 -1e+37 1e+37 0 0 empty empty empty 0 -9 0 10 #fcfcfc #000000 #000000 0 256;
#X obj 298 203 t f f;
#X obj 6 386 r poem-phrase;
#X listbox 6 421 40 0 0 0 - - - 12;
#X obj 214 107 tgl 18 0 empty empty empty 0 -9 0 10 #fcfcfc #000000 #000000 0 1;
#X obj 376 363 r end-piece;
#X obj 298 399 spigot;
#X obj 376 385 tgl 18 0 empty empty empty 0 -9 0 10 #fcfcfc #000000 #000000 0 1;
#X obj 159 132 nbx 5 16 -1e+37 1e+37 0 0 empty empty empty 0 -9 0 10 #fcfcfc #000000 #000000 0 256;
#X obj 363 180 bng 18 250 50 0 empty empty empty 0 -9 0 10 #fcfcfc #000000 #000000;
#X obj 298 421 bng 18 250 50 0 empty empty empty 0 -9 0 10 #fcfcfc #000000 #000000;
#X msg 298 54 0;
#X obj 595 173 else/plaits~;
#X connect 0 0 10 0;
#X connect 0 1 45 0;
#X connect 0 2 30 0;
#X connect 1 0 3 0;
#X connect 2 0 37 0;
#X connect 3 0 29 0;
#X connect 5 0 6 0;
#X connect 6 0 7 0;
#X connect 7 0 38 0;
#X connect 8 0 9 0;
#X connect 10 0 60 0;
#X connect 11 0 22 0;
#X connect 12 0 13 1;
#X connect 12 0 20 0;
#X connect 12 0 48 0;
#X connect 13 0 12 0;
#X connect 14 0 55 0;
#X connect 16 0 13 0;
#X connect 18 0 47 0;
#X connect 19 0 50 0;
#X connect 20 0 19 0;
#X connect 20 1 27 0;
#X connect 21 0 26 0;
#X connect 22 0 14 0;
#X connect 22 1 49 0;
#X connect 26 0 28 0;
#X connect 27 0 19 1;
#X connect 28 0 36 1;
#X connect 28 1 2 0;
#X connect 29 0 4 0;
#X connect 30 0 44 0;
#X connect 31 0 32 0;
#X connect 32 0 11 1;
#X connect 34 0 35 0;
#X connect 36 0 1 0;
#X connect 37 0 36 0;
#X connect 37 1 3 1;
#X connect 38 0 33 0;
#X connect 39 0 38 1;
#X connect 46 0 47 1;
#X connect 46 0 53 0;
#X connect 47 0 21 0;
#X connect 47 0 57 0;
#X connect 49 0 14 1;
#X connect 50 0 11 0;
#X connect 50 1 17 0;
#X connect 51 0 52 0;
#X connect 54 0 55 1;
#X connect 54 0 56 0;
#X connect 55 0 59 0;
#X connect 58 0 13 0;
#X connect 59 0 15 0;
#X connect 60 0 13 0;
#X coords 0 0 1 1 200 140 0;
