#N canvas 6 28 951 486 10;
#X obj 17 14 r t1-s;
#X obj 17 67 nbx 5 16 -1e+37 1e+37 0 0 empty empty empty 0 -9 0 10 #fcfcfc #000000 #000000 0 256;
#X obj 17 93 switch~;
#X obj 59 14 tgl 18 0 empty empty empty 0 -9 0 10 #fcfcfc #000000 #000000 0 1;
#N canvas 6 28 951 726 peca-clock 0;
#X obj 4 336 outlet;
#X obj 8 25 nbx 5 16 -1e+37 1e+37 0 0 empty empty empty 0 -9 0 10 #fcfcfc #000000 #000000 0 256;
#X obj 8 4 r t1-s;
#X obj 8 46 sel 1;
#X obj 8 72 del 30 1 sec;
#X connect 1 0 3 0;
#X connect 2 0 1 0;
#X connect 3 0 4 0;
#X restore 16 151 pd peca-clock;
#X obj 204 97 s t1-s;
#X obj 204 64 tgl 18 0 empty empty empty 0 -9 0 10 #fcfcfc #000000 #000000 0 1;
#N canvas 0 50 450 250 (subpatch) 0;
#X coords 0 1 100 -1 263 98 1;
#X restore 200 21 graph;
#X text 308 25 SIMULACAO;
#N canvas 6 28 951 486 main 0;
#X obj 62 78 osc~ 440;
#X obj 62 269 else/vu~;
#X obj 62 301 s vu-r;
#X obj 11 35 sel 0;
#X msg 11 57 -999;
#X obj 118 78 r vsl1-s;
#X obj 118 100 / 127;
#X obj 62 136 *~;
#X obj 127 269 dac~;
#X obj 272 157 line~;
#X obj 62 198 *~, f 15;
#X msg 272 44 0 \, 1 300;
#X obj 173 12 t f b, f 17;
#X obj 173 34 - 300;
#X obj 173 56 t b f, f 14;
#X obj 173 78 del 300 1 msec;
#X msg 173 104 1 \, 0 300;
#X obj 11 3 inlet;
#X connect 0 0 7 0;
#X connect 1 0 2 0;
#X connect 3 0 4 0;
#X connect 4 0 2 0;
#X connect 5 0 6 0;
#X connect 6 0 7 1;
#X connect 7 0 10 0;
#X connect 9 0 10 1;
#X connect 10 0 1 0;
#X connect 10 0 8 0;
#X connect 10 0 8 1;
#X connect 11 0 9 0;
#X connect 12 0 13 0;
#X connect 12 1 11 0;
#X connect 13 0 14 0;
#X connect 14 0 15 0;
#X connect 14 1 15 1;
#X connect 15 0 16 0;
#X connect 16 0 9 0;
#X connect 17 0 3 0;
#X restore 69 349 pd main;
#N canvas 6 28 951 486 poema 0;
#X obj 8 4 inlet;
#X obj 181 75 text define poema;
#X obj 8 94 text get poema;
#X obj 8 67 else/count;
#X obj 89 118 nbx 5 16 -1e+37 1e+37 0 0 empty empty empty 0 -9 0 10 #fcfcfc #000000 #000000 0 256;
#X obj 89 139 sel 0;
#X msg 89 161 1;
#X msg 116 161 0;
#X obj 8 190 spigot;
#X msg 45 27 -1;
#X msg 181 16 write poema.txt;
#X msg 283 38 read poema.txt;
#X obj 283 16 loadbang;
#X obj 45 4 loadbang;
#X obj 8 212 outlet;
#X connect 0 0 3 0;
#X connect 2 0 8 0;
#X connect 2 1 4 0;
#X connect 3 0 2 0;
#X connect 4 0 5 0;
#X connect 5 0 6 0;
#X connect 5 1 7 0;
#X connect 6 0 8 1;
#X connect 7 0 8 1;
#X connect 8 0 14 0;
#X connect 9 0 3 0;
#X connect 10 0 1 0;
#X connect 11 0 1 0;
#X connect 12 0 11 0;
#X connect 13 0 9 0;
#X restore 182 265 pd poema;
#N canvas 6 28 951 486 quialteras 0;
#X obj 4 336 outlet;
#X restore 16 177 pd quialteras;
#X obj 182 214 bng 18 250 50 0 empty empty empty 0 -9 0 10 #fcfcfc #000000 #000000;
#X obj 182 287 print;
#X obj 175 164 loadbang;
#X obj 175 186 metro 2000;
#X obj 511 154 r on-off;
#X obj 511 177 print;
#X connect 0 0 1 0;
#X connect 1 0 2 0;
#X connect 3 0 1 0;
#X connect 6 0 5 0;
#X connect 10 0 13 0;
#X connect 12 0 10 0;
#X connect 14 0 15 0;
#X connect 15 0 12 0;
#X connect 16 0 17 0;
