#N canvas 483 28 474 486 10;
#X declare -path ../Extras;
#X obj 17 14 r t1-s;
#X obj 17 67 nbx 5 16 -1e+37 1e+37 0 0 empty empty empty 0 -9 0 10 #fcfcfc #000000 #000000 0 256;
#X obj 17 93 switch~;
#X obj 59 14 tgl 18 0 empty empty empty 0 -9 0 10 #fcfcfc #000000 #000000 0 1;
#N canvas 6 28 951 726 peca-clock 0;
#X obj 4 336 outlet;
#X obj 8 25 nbx 5 16 -1e+37 1e+37 0 0 empty empty empty 0 -9 0 10 #fcfcfc #000000 #000000 0 256;
#X obj 8 4 r t1-s;
#X obj 8 46 sel 1;
#X obj 8 72 del 30 1 sec;
#X connect 1 0 3 0;
#X connect 2 0 1 0;
#X connect 3 0 4 0;
#X restore 5 137 pd peca-clock;
#X obj 212 79 s t1-s;
#X obj 212 46 tgl 18 0 empty empty empty 0 -9 0 10 #fcfcfc #000000 #000000 0 1;
#N canvas 0 50 450 250 (subpatch) 0;
#X coords 0 1 100 -1 263 98 1;
#X restore 208 3 graph;
#X text 316 7 SIMULACAO;
#N canvas 1422 261 492 779 main 0;
#X obj 62 78 osc~ 440;
#X obj 62 269 else/vu~;
#X obj 62 301 s vu-r;
#X obj 11 35 sel 0;
#X msg 11 57 -999;
#X obj 118 78 r vsl1-s;
#X obj 118 100 / 127;
#X obj 62 136 *~;
#X obj 127 269 dac~;
#X obj 272 157 line~;
#X obj 62 198 *~, f 15;
#X msg 272 44 0 \, 1 300;
#X obj 173 12 t f b, f 17;
#X obj 173 34 - 300;
#X obj 173 56 t b f, f 14;
#X obj 173 78 del 300 1 msec;
#X msg 173 104 1 \, 0 300;
#X obj 11 3 inlet;
#X connect 0 0 7 0;
#X connect 1 0 2 0;
#X connect 3 0 4 0;
#X connect 4 0 2 0;
#X connect 5 0 6 0;
#X connect 6 0 7 1;
#X connect 7 0 10 0;
#X connect 9 0 10 1;
#X connect 10 0 1 0;
#X connect 10 0 8 0;
#X connect 10 0 8 1;
#X connect 11 0 9 0;
#X connect 12 0 13 0;
#X connect 12 1 11 0;
#X connect 13 0 14 0;
#X connect 14 0 15 0;
#X connect 14 1 15 1;
#X connect 15 0 16 0;
#X connect 16 0 9 0;
#X connect 17 0 3 0;
#X restore 333 150 pd main;
#N canvas 6 28 471 486 poema 1;
#X obj 8 4 inlet;
#X obj 181 75 text define poema;
#X obj 8 160 text get poema;
#X obj 89 184 nbx 5 16 -1e+37 1e+37 0 0 empty empty empty 0 -9 0 10 #fcfcfc #000000 #000000 0 256;
#X obj 89 205 sel 0;
#X msg 89 227 1;
#X msg 116 227 0;
#X obj 8 248 spigot;
#X msg 45 27 -1;
#X msg 181 16 write poema.txt;
#X obj 283 16 loadbang;
#X obj 45 4 loadbang;
#X obj 8 59 else/count;
#X obj 115 14 bng 18 250 50 0 empty empty empty 0 -9 0 10 #fcfcfc #000000 #000000;
#X obj 90 103 bng 18 250 50 0 empty empty empty 0 -9 0 10 #fcfcfc #000000 #000000;
#X obj 8 365 list split;
#X obj 8 135 f;
#X obj 65 321 list length;
#X obj 65 343 expr random(-1 \, $f1);
#X obj 78 365 loadbang;
#X obj 36 407 list split, f 12;
#X msg 78 385 1;
#X obj 36 429 outlet;
#X obj 90 76 inlet;
#X obj 8 270 t a a a, f 39;
#X obj 239 342 s phrase;
#X msg 283 38 read poema.txt;
#X obj 181 110 declare -path ../Extras;
#X connect 0 0 12 0;
#X connect 2 0 7 0;
#X connect 2 1 3 0;
#X connect 3 0 4 0;
#X connect 4 0 5 0;
#X connect 4 1 6 0;
#X connect 5 0 7 1;
#X connect 6 0 7 1;
#X connect 7 0 24 0;
#X connect 8 0 12 0;
#X connect 9 0 1 0;
#X connect 10 0 26 0;
#X connect 11 0 8 0;
#X connect 12 0 16 1;
#X connect 13 0 12 0;
#X connect 14 0 16 0;
#X connect 15 1 20 0;
#X connect 16 0 2 0;
#X connect 17 0 18 0;
#X connect 18 0 15 1;
#X connect 19 0 21 0;
#X connect 20 0 22 0;
#X connect 21 0 20 1;
#X connect 23 0 14 0;
#X connect 24 0 15 0;
#X connect 24 1 17 0;
#X connect 24 2 25 0;
#X connect 26 0 1 0;
#X restore 44 237 pd poema;
#N canvas 6 28 951 486 quialteras 0;
#X obj 4 336 outlet;
#X restore 5 163 pd quialteras;
#X obj 92 137 loadbang;
#X obj 92 159 metro 2000;
#X obj 511 154 r on-off;
#X obj 511 177 print;
#N canvas 474 28 464 486 notes 0;
#X obj 8 4 inlet;
#X obj 8 26 t b b, f 19;
#N canvas 964 225 950 815 random 0;
#X obj 4 6 inlet;
#X obj 4 64 sel 0 1 2 3 4 5 6 7;
#X obj 4 28 expr random(0 \, 7);
#X msg 3 109 c;
#X msg 22 131 d;
#X msg 40 157 e;
#X msg 59 179 f;
#X msg 73 204 g;
#X msg 92 226 a;
#X msg 111 250 b;
#X obj 15 321 outlet;
#X connect 0 0 2 0;
#X connect 1 0 3 0;
#X connect 1 1 4 0;
#X connect 1 2 5 0;
#X connect 1 3 6 0;
#X connect 1 4 7 0;
#X connect 1 5 8 0;
#X connect 1 6 9 0;
#X connect 2 0 1 0;
#X connect 3 0 10 0;
#X connect 4 0 10 0;
#X connect 5 0 10 0;
#X connect 6 0 10 0;
#X connect 7 0 10 0;
#X connect 8 0 10 0;
#X connect 9 0 10 0;
#X restore 8 48 pd random;
#X obj 8 98 list;
#X msg 8 120 \$1/\$2;
#X obj 119 46 expr random(4 \, 6);
#X obj 8 142 outlet;
#X connect 0 0 1 0;
#X connect 1 0 2 0;
#X connect 1 1 5 0;
#X connect 2 0 3 0;
#X connect 3 0 4 0;
#X connect 4 0 6 0;
#X connect 5 0 3 1;
#X restore 149 235 pd notes;
#X obj 92 181 t b b, f 10;
#X obj 44 262 list, f 18;
#X obj 44 300 s mylist;
#X obj 44 213 metro 10000;
#X connect 0 0 1 0;
#X connect 1 0 2 0;
#X connect 3 0 1 0;
#X connect 6 0 5 0;
#X connect 10 0 18 0;
#X connect 12 0 13 0;
#X connect 12 0 20 0;
#X connect 13 0 17 0;
#X connect 14 0 15 0;
#X connect 16 0 18 1;
#X connect 17 0 10 1;
#X connect 17 1 16 0;
#X connect 18 0 19 0;
#X connect 20 0 10 0;
