#N canvas 6 28 971 1012 10;
#N canvas 663 28 624 1012 peca-clock 0;
#X obj 8 70 nbx 5 16 -1e+37 1e+37 0 0 empty empty empty 0 -9 0 10 #fcfcfc #000000 #000000 0 256;
#X obj 8 179 del 30 1 sec;
#X obj 89 225 nbx 5 16 -1e+37 1e+37 0 0 empty empty empty 0 -9 0 10 #fcfcfc #000000 #000000 0 256;
#X msg 89 179 0 \, 100 30000;
#X obj 89 346 s duration-bar;
#X obj 89 203 line 1 1 msec;
#X obj 8 89 sel 1 0, f 52;
#X msg 163 109 stop;
#X msg 216 143 0;
#X obj 8 4 r on-off;
#X obj 8 111 t b b b, f 14;
#X obj 190 346 s poem-phrase;
#X msg 190 179 list Silêncio.;
#X obj 139 254 int;
#X msg 247 309 list Respire!;
#X obj 247 288 sel 90;
#X obj 8 201 outlet;
#X connect 0 0 6 0;
#X connect 1 0 16 0;
#X connect 2 0 4 0;
#X connect 2 0 13 0;
#X connect 3 0 5 0;
#X connect 5 0 2 0;
#X connect 6 0 10 0;
#X connect 6 1 7 0;
#X connect 7 0 1 0;
#X connect 7 0 5 0;
#X connect 7 0 8 0;
#X connect 8 0 2 0;
#X connect 9 0 0 0;
#X connect 10 0 1 0;
#X connect 10 1 3 0;
#X connect 10 2 12 0;
#X connect 12 0 11 0;
#X connect 13 0 15 0;
#X connect 14 0 11 0;
#X connect 15 0 14 0;
#X restore 6 82 pd peca-clock;
#N canvas 983 28 931 486 main 1;
#X obj 62 78 osc~ 440;
#X obj 62 343 vu~;
#X obj 62 375 s vu-r;
#X obj 272 217 line~;
#X obj 62 272 *~, f 15;
#X msg 272 131 0 \, 1 300;
#X obj 173 99 t f b, f 17;
#X obj 173 121 - 300;
#X obj 173 143 t b f, f 14;
#X obj 173 165 del 300 1 msec;
#X msg 173 191 1 \, 0 300;
#X obj 62 5 inlet;
#X obj 173 79 f;
#X obj 62 27 t f b;
#X obj 118 343 dac~ 1;
#X obj 188 21 r total-duration;
#X connect 0 0 4 0;
#X connect 1 0 2 0;
#X connect 3 0 4 1;
#X connect 4 0 1 0;
#X connect 4 0 14 0;
#X connect 5 0 3 0;
#X connect 6 0 7 0;
#X connect 6 1 5 0;
#X connect 7 0 8 0;
#X connect 8 0 9 0;
#X connect 8 1 9 1;
#X connect 9 0 10 0;
#X connect 10 0 3 0;
#X connect 11 0 13 0;
#X connect 12 0 6 0;
#X connect 13 0 0 0;
#X connect 13 1 12 0;
#X connect 15 0 12 1;
#X restore 396 68 pd main;
#N canvas 663 28 624 1012 poema 0;
#X obj 176 93 text define poema;
#X obj 8 124 text get poema;
#X obj 89 184 nbx 5 16 -1e+37 1e+37 0 0 empty empty empty 0 -9 0 10 #fcfcfc #000000 #000000 0 256;
#X obj 89 205 sel 0;
#X msg 89 227 1;
#X msg 116 227 0;
#X obj 8 248 spigot;
#X msg 176 34 write poema.txt;
#X obj 278 34 loadbang;
#X obj 115 14 bng 18 250 50 0 empty empty empty 0 -9 0 10 #fcfcfc #000000 #000000;
#X obj 8 365 list split;
#X obj 65 321 list length;
#X obj 65 343 expr random(-1 \, $f1);
#X obj 78 365 loadbang;
#X obj 36 438 list split, f 12;
#X msg 78 416 1;
#X obj 36 460 outlet;
#X obj 8 270 t a a a, f 39;
#X msg 278 56 read poema.txt;
#X obj 239 306 spigot;
#X obj 272 207 r on-off;
#X obj 239 386 s poem-phrase;
#X obj 302 240 loadbang;
#X msg 302 262 1;
#X obj 175 8 declare -path ./Extras;
#X obj 8 20 inlet;
#X connect 1 0 6 0;
#X connect 1 1 2 0;
#X connect 2 0 3 0;
#X connect 3 0 4 0;
#X connect 3 1 5 0;
#X connect 4 0 6 1;
#X connect 5 0 6 1;
#X connect 6 0 17 0;
#X connect 7 0 0 0;
#X connect 8 0 18 0;
#X connect 10 1 14 0;
#X connect 11 0 12 0;
#X connect 12 0 10 1;
#X connect 13 0 15 0;
#X connect 14 0 16 0;
#X connect 15 0 14 1;
#X connect 17 0 10 0;
#X connect 17 1 11 0;
#X connect 17 2 19 0;
#X connect 18 0 0 0;
#X connect 19 0 21 0;
#X connect 20 0 19 1;
#X connect 22 0 23 0;
#X connect 23 0 19 1;
#X connect 25 0 1 0;
#X restore 278 126 pd poema;
#N canvas 1293 28 621 1012 notes 0;
#X obj 7 4 inlet;
#X obj 7 320 outlet;
#X obj 79 5 r voz;
#X obj 79 27 sel 1 2 3 4, f 42;
#X text 327 9 1 \, baixo 2 \, tenor 3 \, contralto 4 \, soprano;
#X msg 79 70 45 57;
#X msg 141 70 50 62;
#X msg 203 70 57 69;
#X msg 266 69 62 74;
#X obj 80 113 unpack f f;
#X obj 7 141 expr random($f2 * 100 \, $f3 * 100) * 0.01;
#X obj 7 227 midi2note;
#X obj 24 27 loadbang;
#X obj 101 227 s midi-pitch;
#X connect 0 0 10 0;
#X connect 2 0 3 0;
#X connect 3 0 5 0;
#X connect 3 1 6 0;
#X connect 3 2 7 0;
#X connect 3 3 8 0;
#X connect 5 0 9 0;
#X connect 6 0 9 0;
#X connect 7 0 9 0;
#X connect 8 0 9 0;
#X connect 9 0 10 1;
#X connect 9 1 10 2;
#X connect 10 0 11 0;
#X connect 10 0 13 0;
#X connect 11 0 1 0;
#X connect 12 0 8 0;
#X restore 383 128 pd notes;
#X obj 278 186 list, f 18;
#X obj 278 252 s mylist;
#X obj 396 4 r midi-pitch;
#X obj 396 26 nbx 5 16 -1e+37 1e+37 0 0 empty empty empty 0 -9 0 10 #fcfcfc #000000 #000000 0 256;
#X obj 396 47 mtof;
#X obj 6 6 tgl 45 0 empty empty empty 0 -9 0 10 #fcfcfc #000000 #000000 0 1;
#X obj 6 58 s on-off;
#X obj 6 104 bng 18 250 50 0 empty empty empty 0 -9 0 10 #fcfcfc #000000 #000000;
#X obj 6 327 array get duration-array;
#X msg 6 127 -1;
#X obj 6 172 + 1, f 6;
#X obj 6 151 int, f 6;
#X obj 6 295 nbx 5 16 -1e+37 1e+37 0 0 empty empty empty 0 -9 0 10 #fcfcfc #000000 #000000 0 256;
#X obj 6 373 del 1 1 msec;
#X obj 6 395 s next;
#X obj 36 127 r next;
#X obj 158 327 s phr-count;
#X obj 278 19 r phr-count;
#X obj 6 268 spigot, f 8;
#X obj 6 194 t f f, f 8;
#N canvas 663 28 624 1012 split-dur 0;
#X obj 4 3 inlet;
#X obj 53 223 router 2, f 14;
#X obj 53 74 array get duration-array;
#X obj 53 259 / 2;
#X obj 134 270 b;
#X obj 4 357 f;
#X obj 4 379 outlet;
#X obj 53 96 nbx 5 16 -1e+37 1e+37 0 0 empty empty empty 0 -9 0 10 #fcfcfc #000000 #000000 0 256;
#X obj 53 123 t f f b, f 28;
#N canvas 663 554 624 486 duration-bar 0;
#X msg 12 54 0 \, 100 \$1;
#X obj 12 79 line;
#X obj 69 189 s poem-phrase;
#X obj 69 123 int;
#X msg 69 166 list Respire!;
#X obj 69 145 sel 90;
#X obj 12 101 t f f, f 10;
#X obj 12 218 s duration-bar;
#X obj 12 7 inlet;
#X obj 78 54 r stop-bar;
#X obj 147 54 s total-duration;
#X connect 0 0 1 0;
#X connect 1 0 6 0;
#X connect 3 0 5 0;
#X connect 4 0 2 0;
#X connect 5 0 4 0;
#X connect 6 0 7 0;
#X connect 6 1 3 0;
#X connect 8 0 0 0;
#X connect 8 0 10 0;
#X connect 9 0 1 0;
#X restore 160 270 pd duration-bar;
#X obj 218 169 s stop-bar;
#N canvas 663 554 624 486 duration-bar 0;
#X msg 13 116 0 \, 100 \$1;
#X obj 13 143 line;
#X obj 70 275 s poem-phrase;
#X obj 70 209 int;
#X msg 70 252 list Respire!;
#X obj 70 231 sel 90;
#X obj 13 187 t f f, f 10;
#X obj 13 304 s duration-bar;
#X obj 13 7 inlet;
#X obj 79 116 r stop-bar;
#X obj 13 29 t b f;
#X obj 13 51 f;
#X obj 126 168 sel 100;
#X obj 126 190 outlet;
#X obj 146 116 s total-duration;
#X connect 0 0 1 0;
#X connect 1 0 6 0;
#X connect 1 0 12 0;
#X connect 3 0 5 0;
#X connect 4 0 2 0;
#X connect 5 0 4 0;
#X connect 6 0 7 0;
#X connect 6 1 3 0;
#X connect 8 0 10 0;
#X connect 9 0 1 0;
#X connect 10 0 11 0;
#X connect 10 1 11 1;
#X connect 11 0 0 0;
#X connect 11 0 14 0;
#X connect 12 0 11 0;
#X connect 12 0 13 0;
#X restore 53 305 pd duration-bar;
#X msg 218 145 stop;
#X obj 4 25 t f f f, f 8;
#X obj 135 200 expr if($f1 > 15000 \, 0 \, 1);
#X connect 0 0 13 0;
#X connect 1 0 3 0;
#X connect 1 0 4 0;
#X connect 1 1 4 0;
#X connect 1 1 9 0;
#X connect 2 0 7 0;
#X connect 3 0 11 0;
#X connect 4 0 5 0;
#X connect 5 0 6 0;
#X connect 7 0 8 0;
#X connect 8 0 1 0;
#X connect 8 1 14 0;
#X connect 8 2 12 0;
#X connect 11 0 5 0;
#X connect 12 0 10 0;
#X connect 13 1 2 0;
#X connect 13 2 5 1;
#X connect 14 0 1 1;
#X restore 278 42 pd split-dur;
#X obj 6 349 t b f, f 24;
#X obj 56 25 hsl 153 18 0 100 0 0 empty duration-bar empty -2 -9 0 10 #fcfcfc #000000 #000000 0 1;
#X text 52 43 Duration bar;
#N canvas 6 28 951 486 config 0;
#X obj 6 26 r duration-list;
#X obj 6 145 array set duration-array;
#X obj 6 4 array define -yrange 0 25000 duration-array 22;
#X msg 106 52 22000 19528 12698 15787 15698 16245 8098 7984 5800 15924 5167 17537 16824 20852 8488 15685 5539 20267 12004 19579 9950 8346;
#X obj 106 26 loadbang;
#X connect 0 0 1 0;
#X connect 3 0 1 0;
#X connect 4 0 3 0;
#X restore 53 6 pd config;
#X obj 278 65 nbx 5 16 -1e+37 1e+37 0 0 empty empty empty 0 -9 0 10 #fcfcfc #000000 #000000 0 256;
#X obj 51 215 expr if($f1 > 22 \, 0 \, 1);
#X obj 278 86 t f f;
#X listbox 291 211 9 0 0 0 - - - 24;
#X connect 0 0 11 0;
#X connect 2 0 4 0;
#X connect 3 0 4 1;
#X connect 4 0 5 0;
#X connect 4 0 32 0;
#X connect 6 0 7 0;
#X connect 7 0 8 0;
#X connect 8 0 1 0;
#X connect 9 0 10 0;
#X connect 11 0 13 0;
#X connect 12 0 25 0;
#X connect 13 0 15 0;
#X connect 14 0 15 1;
#X connect 14 0 23 0;
#X connect 15 0 14 0;
#X connect 16 0 12 0;
#X connect 16 0 20 0;
#X connect 17 0 18 0;
#X connect 19 0 15 0;
#X connect 21 0 24 0;
#X connect 22 0 16 0;
#X connect 23 0 22 0;
#X connect 23 1 30 0;
#X connect 24 0 29 0;
#X connect 25 0 17 0;
#X connect 25 1 17 1;
#X connect 29 0 31 0;
#X connect 30 0 22 1;
#X connect 31 0 2 0;
#X connect 31 1 3 0;
#X coords 0 0 1 1 200 140 0;
